<svg width="230" height="230" viewBox="0 0 230 230" fill="none" xmlns="http://www.w3.org/2000/svg">
<g filter="url(#filter0_d_36_53)">
<circle cx="115" cy="115" r="100" fill="#FAFAFA"/>
<mask id="mask0_36_53" style="mask-type:alpha" maskUnits="userSpaceOnUse" x="15" y="15" width="200" height="200">
<circle cx="115" cy="115" r="100" fill="white"/>
</mask>
<g mask="url(#mask0_36_53)">
<path d="M114 15H116V24C116 24.5523 115.552 25 115 25V25C114.448 25 114 24.5523 114 24V15Z" fill="#4A4A4A"/>
<path d="M15 116V114H24C24.5523 114 25 114.448 25 115V115C25 115.552 24.5523 116 24 116H15Z" fill="#4A4A4A"/>
<path d="M215 114V116H206C205.448 116 205 115.552 205 115V115C205 114.448 205.448 114 206 114H215Z" fill="#4A4A4A"/>
<path d="M116 215H114V206C114 205.448 114.448 205 115 205V205C115.552 205 116 205.448 116 206V215Z" fill="#4A4A4A"/>
<path d="M43 44.4142L44.4142 43L50.7782 49.364C51.1687 49.7545 51.1687 50.3877 50.7782 50.7782V50.7782C50.3877 51.1687 49.7545 51.1687 49.364 50.7782L43 44.4142Z" fill="#4A4A4A"/>
<path d="M186.485 185.071L185.071 186.485L178.707 180.121C178.317 179.731 178.317 179.097 178.707 178.707V178.707C179.098 178.316 179.731 178.316 180.121 178.707L186.485 185.071Z" fill="#4A4A4A"/>
<path d="M185.071 43L186.485 44.4142L180.121 50.7782C179.731 51.1687 179.098 51.1687 178.707 50.7782V50.7782C178.317 50.3877 178.317 49.7545 178.707 49.364L185.071 43Z" fill="#4A4A4A"/>
<path d="M140.294 18L141.26 18.2588L140.095 22.6055C140.024 22.8722 139.75 23.0305 139.483 22.959V22.959C139.216 22.8876 139.058 22.6134 139.129 22.3467L140.294 18Z" fill="#4A4A4A"/>
<path d="M164.5 28L165.366 28.5L163.116 32.3971C162.978 32.6363 162.672 32.7182 162.433 32.5801V32.5801C162.194 32.4421 162.112 32.1363 162.25 31.8971L164.5 28Z" fill="#4A4A4A"/>
<path d="M201.33 64L201.83 64.866L197.933 67.116C197.694 67.2541 197.388 67.1722 197.25 66.933V66.933C197.112 66.6939 197.194 66.3881 197.433 66.25L201.33 64Z" fill="#4A4A4A"/>
<path d="M211.7 88.553L211.959 89.5189L207.613 90.6836C207.346 90.7551 207.072 90.5968 207 90.3301V90.3301C206.929 90.0633 207.087 89.7892 207.354 89.7177L211.7 88.553Z" fill="#4A4A4A"/>
<path d="M212.088 140.294L211.83 141.26L207.483 140.095C207.216 140.024 207.058 139.75 207.129 139.483V139.483C207.201 139.216 207.475 139.058 207.742 139.129L212.088 140.294Z" fill="#4A4A4A"/>
<path d="M201.83 164.5L201.33 165.366L197.433 163.116C197.194 162.978 197.112 162.672 197.25 162.433V162.433C197.388 162.194 197.694 162.112 197.933 162.25L201.83 164.5Z" fill="#4A4A4A"/>
<path d="M28 64.866L28.5 64L32.3971 66.25C32.6363 66.3881 32.7182 66.6939 32.5801 66.933V66.933C32.4421 67.1722 32.1363 67.2541 31.8971 67.116L28 64.866Z" fill="#4A4A4A"/>
<path d="M64 28.5L64.866 28L67.116 31.8971C67.2541 32.1363 67.1722 32.4421 66.933 32.5801V32.5801C66.6939 32.7182 66.3881 32.6363 66.25 32.3971L64 28.5Z" fill="#4A4A4A"/>
<path d="M89 18.2588L89.9659 18L91.1306 22.3467C91.2021 22.6134 91.0438 22.8876 90.7771 22.959V22.959C90.5103 23.0305 90.2362 22.8722 90.1647 22.6055L89 18.2588Z" fill="#4A4A4A"/>
<path d="M165.366 201.33L164.5 201.83L162.25 197.933C162.112 197.694 162.194 197.388 162.433 197.25V197.25C162.672 197.112 162.978 197.194 163.116 197.433L165.366 201.33Z" fill="#4A4A4A"/>
<path d="M141.26 211.83L140.294 212.088L139.129 207.742C139.058 207.475 139.216 207.201 139.483 207.129V207.129C139.75 207.058 140.024 207.216 140.095 207.483L141.26 211.83Z" fill="#4A4A4A"/>
<path d="M18 88.9659L18.2588 88L22.6055 89.1647C22.8722 89.2361 23.0305 89.5103 22.959 89.777V89.777C22.8876 90.0438 22.6134 90.2021 22.3467 90.1306L18 88.9659Z" fill="#4A4A4A"/>
<path d="M18.2589 141.26L18 140.294L22.3467 139.129C22.6134 139.058 22.8876 139.216 22.9591 139.483V139.483C23.0305 139.75 22.8722 140.024 22.6055 140.095L18.2589 141.26Z" fill="#4A4A4A"/>
<path d="M28.5 165.366L28 164.5L31.8971 162.25C32.1363 162.112 32.4421 162.194 32.5801 162.433V162.433C32.7182 162.672 32.6363 162.978 32.3971 163.116L28.5 165.366Z" fill="#4A4A4A"/>
<path d="M64.866 201.83L64 201.33L66.25 197.433C66.3881 197.194 66.6939 197.112 66.933 197.25V197.25C67.1722 197.388 67.2541 197.694 67.116 197.933L64.866 201.83Z" fill="#4A4A4A"/>
<path d="M88.9659 212.088L88 211.83L89.1647 207.483C89.2362 207.216 89.5103 207.058 89.7771 207.129V207.129C90.0438 207.201 90.2021 207.475 90.1306 207.742L88.9659 212.088Z" fill="#4A4A4A"/>
<path d="M44.4142 186.485L43 185.071L49.3639 178.707C49.7545 178.317 50.3876 178.317 50.7781 178.707V178.707C51.1687 179.098 51.1687 179.731 50.7781 180.121L44.4142 186.485Z" fill="#4A4A4A"/>
</g>
</g>
<defs>
<filter id="filter0_d_36_53" x="0" y="0" width="230" height="230" filterUnits="userSpaceOnUse" color-interpolation-filters="sRGB">
<feFlood flood-opacity="0" result="BackgroundImageFix"/>
<feColorMatrix in="SourceAlpha" type="matrix" values="0 0 0 0 0 0 0 0 0 0 0 0 0 0 0 0 0 0 127 0" result="hardAlpha"/>
<feOffset/>
<feGaussianBlur stdDeviation="7.5"/>
<feComposite in2="hardAlpha" operator="out"/>
<feColorMatrix type="matrix" values="0 0 0 0 0 0 0 0 0 0 0 0 0 0 0 0 0 0 0.25 0"/>
<feBlend mode="normal" in2="BackgroundImageFix" result="effect1_dropShadow_36_53"/>
<feBlend mode="normal" in="SourceGraphic" in2="effect1_dropShadow_36_53" result="shape"/>
</filter>
</defs>
</svg>
